<svg xmlns="http://www.w3.org/2000/svg" viewBox="0 0 500 500"><path d="M500,132.3C444,49.4,387.8-21.9,329,6.2q-126-17-200,62l81.4,31.4-71.7-2.9c18,24.6,53.4,42.4,101.9,54.9,61.7,53.7,84.1,71.3,80.8,22.4,164.9,55.1,64.7,221.5-6.9,134,11.6,40.5,32.7,67.8,65.3,78.9,26.2,38,47.4,44.9,67.3,43.5-19.1-10.5-24.8-42.3-20-90.5,73.5-59.9,86.7-127,54-199.7C479.8,130.8,488.7,130.4,500,132.3ZM216.4,55.7a28.6,28.6,0,1,1,28.5,28.5A28.6,28.6,0,0,1,216.4,55.7Zm41,88.1c32.5-31.3,46.7-70.5,32.8-121.9Q333.7,106.4,257.4,143.8Zm1.4-88.1a13.9,13.9,0,1,1-13.9-13.9A13.9,13.9,0,0,1,258.8,55.7ZM0,367.7c56,82.9,112.2,154.2,171,126.1q126,16.9,200-62l-81.4,12.5,71.7-41c-18-24.6-53.4-42.4-101.9-54.9-61.7-53.7-84.1-71.3-80.8-22.4-164.9-55.1-64.7-221.5,6.9-134-11.6-40.5-32.7-67.8-65.3-78.9C94,75.1,72.8,68.2,52.9,69.6c19.1,10.5,24.8,42.3,20,90.5-73.5,59.9-86.7,127-54,199.7C20.2,369.2,11.3,369.6,0,367.7Zm290.9,32.1a28.5,28.5,0,1,1-28.5-28.5A28.5,28.5,0,0,1,290.9,399.8Zm-48.3-43.6c-32.5,31.3-46.7,70.5-32.8,121.9Q166.3,393.7,242.6,356.2Zm5.9,43.6a13.9,13.9,0,1,1,13.9,13.9A13.9,13.9,0,0,1,248.5,399.8Z"/></svg>