<!DOCTYPE svg PUBLIC "-//W3C//DTD SVG 20010904//EN" "http://www.w3.org/TR/2001/REC-SVG-20010904/DTD/svg10.dtd">
<svg version="1.0" xmlns="http://www.w3.org/2000/svg" width="900px" height="803px" viewBox="0 0 9000 8030" preserveAspectRatio="xMidYMid meet">
<g id="layer101" fill="#2f2f2f" stroke="none">
<path d="M4400 7617 c-87 -20 -150 -56 -221 -126 -66 -66 -125 -159 -154 -241 -9 -25 -29 -124 -46 -220 -39 -228 -31 -209 -82 -199 -83 16 -358 10 -479 -10 -134 -23 -300 -76 -416 -132 -46 -22 -85 -39 -86 -37 -1 2 -22 37 -46 78 -98 170 -205 316 -305 416 -85 86 -113 107 -185 141 -104 50 -172 67 -270 66 -136 -1 -244 -63 -304 -174 -25 -45 -29 -63 -28 -123 1 -89 22 -157 128 -413 86 -207 134 -330 134 -343 0 -3 -24 -23 -54 -44 -69 -48 -154 -136 -204 -215 -72 -111 -109 -220 -128 -373 -5 -46 -8 -49 -72 -91 -143 -93 -254 -218 -328 -372 -68 -141 -87 -224 -87 -395 -1 -155 9 -213 60 -343 l26 -67 -25 -28 c-71 -77 -124 -179 -147 -285 -11 -45 -28 -116 -40 -157 -22 -80 -30 -257 -11 -276 6 -6 -16 -34 -61 -79 -78 -76 -133 -176 -164 -295 -23 -87 -31 -306 -15 -411 34 -238 158 -470 350 -658 66 -64 79 -84 89 -126 31 -128 115 -275 213 -375 131 -133 188 -174 407 -290 147 -76 153 -85 182 -227 30 -153 91 -269 197 -377 111 -113 261 -200 427 -248 65 -18 104 -22 205 -22 131 0 147 4 340 79 l45 18 55 -38 c367 -252 894 -255 1222 -6 37 28 81 68 98 90 l32 39 91 -43 c109 -52 178 -71 312 -86 298 -34 658 57 880 221 74 55 146 136 188 211 l37 66 72 -14 c199 -39 523 61 748 231 277 208 425 482 406 749 -5 78 -37 262 -51 300 -4 10 25 29 97 66 182 92 286 194 373 366 60 118 86 223 86 346 1 97 -23 215 -56 279 l-14 28 52 26 c147 72 282 258 328 454 30 124 23 303 -15 417 -49 143 -129 254 -235 326 -31 21 -49 40 -46 49 32 128 39 203 27 302 -21 185 -75 341 -148 426 l-32 38 24 158 c13 87 36 213 50 279 94 449 104 511 104 673 0 92 -3 107 -28 154 -66 127 -285 177 -445 103 -163 -77 -337 -326 -468 -670 l-8 -22 -65 24 c-105 40 -251 65 -374 65 l-110 0 -17 78 c-26 121 -92 348 -114 390 -28 55 -112 127 -179 153 -44 17 -78 23 -147 23 -110 0 -174 -24 -235 -90 -49 -54 -71 -102 -100 -223 -19 -76 -25 -91 -39 -86 -37 14 -182 45 -266 56 -85 11 -308 7 -412 -7 l-42 -6 0 340 c0 358 -7 425 -49 523 -66 153 -266 253 -432 216z"/>
</g>
<g id="layer102" fill="#78a3ad" stroke="none">
<path d="M3412 6821 c-128 -23 -303 -80 -402 -129 -41 -21 -135 -72 -207 -115 -164 -95 -202 -111 -345 -137 -485 -91 -753 -348 -804 -772 -5 -46 -8 -49 -72 -91 -143 -93 -254 -218 -328 -372 -68 -141 -87 -224 -87 -395 -1 -155 9 -213 60 -343 l26 -67 -25 -28 c-71 -77 -124 -179 -147 -285 -11 -45 -28 -116 -40 -157 -22 -80 -30 -257 -11 -276 6 -6 -16 -34 -61 -79 -78 -76 -133 -176 -164 -295 -23 -87 -31 -306 -15 -411 34 -238 158 -470 350 -658 66 -64 79 -84 89 -126 31 -128 115 -275 213 -375 131 -133 188 -174 407 -290 147 -76 153 -85 182 -227 30 -153 91 -269 197 -377 111 -113 261 -200 427 -248 65 -18 104 -22 205 -22 131 0 147 4 340 79 l45 18 55 -38 c367 -252 894 -255 1222 -6 37 28 81 68 98 90 l32 39 91 -43 c109 -52 178 -71 312 -86 298 -34 658 57 880 221 74 55 146 136 188 211 l37 66 72 -14 c199 -39 523 61 748 231 277 208 425 482 406 749 -5 78 -37 262 -51 300 -4 10 25 29 97 66 182 92 286 194 373 366 60 118 86 223 86 346 1 97 -23 215 -56 279 l-14 28 52 26 c147 72 282 258 328 454 30 124 23 303 -15 417 -49 143 -129 254 -235 326 -31 21 -49 40 -46 49 32 128 39 203 27 302 -34 307 -130 465 -347 575 -55 28 -125 61 -155 74 -75 31 -86 42 -131 132 -56 112 -107 184 -185 257 -82 77 -166 121 -301 157 -88 24 -116 27 -278 27 -163 1 -187 -1 -256 -23 -100 -31 -126 -25 -224 49 -152 114 -384 216 -593 260 -129 28 -345 37 -475 20 -56 -7 -106 -15 -112 -18 -5 -4 -19 -8 -30 -9 -11 -2 -44 -13 -74 -25 -75 -30 -101 -27 -152 14 -161 131 -423 261 -599 297 -30 6 -66 14 -80 17 -14 4 -115 8 -225 10 -162 3 -219 0 -303 -15z m216 -1849 c292 -64 539 -195 757 -404 215 -205 271 -322 410 -858 37 -140 78 -290 91 -333 53 -172 104 -503 90 -580 -4 -23 -16 -43 -32 -53 -27 -18 -20 -21 -214 83 -98 53 -205 89 -324 109 -150 26 -252 -1 -291 -76 -18 -35 -19 -113 -3 -173 14 -54 5 -92 -28 -114 -23 -14 -32 -15 -72 -4 -25 6 -78 32 -118 57 -40 25 -117 61 -171 81 -182 66 -346 55 -464 -32 -40 -29 -50 -43 -69 -102 -62 -188 -112 -207 -220 -82 -96 110 -303 185 -490 177 -151 -7 -203 -43 -240 -166 -21 -73 -47 -112 -74 -112 -32 0 -75 51 -94 113 -40 125 -54 215 -77 532 -9 116 -21 242 -26 280 -5 39 -12 185 -16 325 -4 210 -3 275 11 370 57 386 204 621 492 788 139 81 366 156 544 181 41 6 86 13 100 15 14 3 117 3 230 1 159 -2 226 -8 298 -23z"/>
</g>
<g id="layer103" fill="#e0e0e0" stroke="none">
<path d="M3412 6821 c-128 -23 -303 -80 -402 -129 -41 -21 -135 -72 -207 -115 -164 -95 -202 -111 -345 -137 -485 -91 -753 -348 -804 -772 -5 -46 -8 -49 -72 -91 -143 -93 -254 -218 -328 -372 -68 -141 -87 -224 -87 -395 -1 -155 9 -213 60 -343 l26 -67 -25 -28 c-71 -77 -124 -179 -147 -285 -11 -45 -28 -116 -40 -157 -23 -81 -30 -263 -11 -275 6 -4 8 -10 6 -13 -2 -4 26 7 62 26 73 36 227 72 309 72 151 0 300 -58 399 -155 69 -68 105 -125 141 -223 20 -56 23 -60 19 -27 -3 22 -9 157 -12 300 -5 217 -4 279 10 375 39 263 123 461 255 603 168 181 439 309 781 369 118 21 492 17 605 -5 299 -61 557 -196 780 -409 201 -192 263 -311 374 -721 67 -247 67 -247 67 -136 1 119 15 180 70 299 59 125 106 185 204 259 199 150 446 218 691 191 524 -58 858 -445 808 -938 -30 -288 -197 -571 -396 -669 -52 -25 -68 -28 -158 -28 -95 0 -104 2 -178 37 -134 64 -212 163 -233 298 -10 63 3 105 62 191 89 130 101 176 65 247 -24 47 -45 66 -101 91 -86 39 -200 24 -270 -37 -64 -54 -82 -99 -91 -233 -13 -186 -45 -239 -146 -239 -91 0 -166 43 -223 127 -29 43 -32 45 -26 18 3 -16 17 -83 30 -148 31 -146 51 -332 42 -381 -4 -22 -16 -42 -32 -52 -27 -18 -20 -21 -214 83 -98 53 -205 89 -324 109 -150 26 -252 -1 -291 -76 -18 -35 -19 -113 -3 -173 14 -54 5 -92 -28 -114 -23 -14 -32 -15 -72 -4 -25 6 -78 32 -118 57 -40 25 -117 61 -171 81 -182 66 -346 55 -464 -32 -40 -29 -50 -43 -69 -102 -62 -188 -112 -207 -220 -82 -96 110 -303 185 -490 177 -151 -7 -203 -43 -240 -166 -21 -73 -47 -112 -74 -112 -32 0 -75 51 -94 113 -38 119 -54 220 -72 472 -6 83 -14 157 -16 165 -3 9 -13 -7 -23 -38 -19 -56 -46 -92 -68 -92 -7 0 -47 31 -88 69 -83 77 -154 111 -232 111 -144 0 -240 -148 -190 -294 l15 -45 -39 -78 c-78 -155 -137 -393 -140 -564 -1 -104 24 -201 83 -310 41 -77 146 -206 207 -254 28 -21 53 -44 55 -51 6 -16 152 -104 295 -179 136 -71 144 -81 172 -222 30 -153 91 -269 197 -377 111 -113 261 -200 427 -248 65 -18 104 -22 205 -22 131 0 147 4 340 79 l45 18 55 -38 c367 -252 894 -255 1222 -6 37 28 81 68 98 90 l32 39 91 -43 c109 -52 178 -71 312 -86 298 -34 658 57 880 221 74 55 146 136 188 211 l37 66 72 -14 c199 -39 523 61 748 231 277 208 425 482 406 749 -5 78 -37 262 -51 300 -4 10 25 29 97 66 182 92 286 194 373 366 60 118 86 223 86 346 1 97 -23 215 -56 279 l-14 28 52 26 c147 72 282 258 328 454 30 124 23 303 -15 417 -49 143 -129 254 -235 326 -31 21 -49 40 -46 49 32 128 39 203 27 302 -34 307 -130 465 -347 575 -55 28 -125 61 -155 74 -75 31 -86 42 -131 132 -56 112 -107 184 -185 257 -82 77 -166 121 -301 157 -88 24 -116 27 -278 27 -163 1 -187 -1 -256 -23 -100 -31 -126 -25 -224 49 -152 114 -384 216 -593 260 -129 28 -345 37 -475 20 -56 -7 -106 -15 -112 -18 -5 -4 -19 -8 -30 -9 -11 -2 -44 -13 -74 -25 -75 -30 -101 -27 -152 14 -161 131 -423 261 -599 297 -30 6 -66 14 -80 17 -14 4 -115 8 -225 10 -162 3 -219 0 -303 -15z"/>
<path d="M2984 4781 c-46 -28 -58 -73 -51 -200 3 -58 3 -114 -1 -123 -4 -9 -41 -43 -82 -76 -41 -33 -87 -72 -102 -88 -57 -61 -75 -157 -38 -194 41 -41 106 -15 181 71 62 72 101 96 173 110 76 14 155 -2 260 -52 107 -51 156 -59 185 -30 29 29 28 88 -1 131 -13 18 -50 48 -83 66 -57 32 -204 74 -258 74 -52 0 -60 22 -54 146 4 63 13 128 21 148 l15 36 -67 0 c-48 0 -76 -5 -98 -19z"/>
<path d="M3879 3805 c-119 -62 -186 -236 -146 -376 37 -126 114 -200 218 -207 79 -6 136 16 189 74 67 73 85 123 85 234 0 108 -21 168 -78 229 -70 73 -180 92 -268 46z"/>
<path d="M2445 3623 c-204 -107 -179 -451 39 -558 153 -75 308 12 336 188 23 144 -61 312 -183 368 -52 23 -150 25 -192 2z"/>
</g>


</svg>